<?xml version="1.0" encoding="UTF-8"?>
<svg width="495px" height="356px" viewBox="0 0 495 356" version="1.1" xmlns="http://www.w3.org/2000/svg" xmlns:xlink="http://www.w3.org/1999/xlink">
    <!-- Generator: Sketch 63 (92445) - https://sketch.com -->
    <title>Mask</title>
    <desc>Created with Sketch.</desc>
    <defs>
        <path d="M251.119235,355 L280.629921,289.898119 L136.974128,0 L22.8290214,0 L22.8290214,4.45141066 C29.1394826,4.82236155 36.4707537,6.39890282 44.8228346,9.18103448 C53.1749156,11.9631661 60.8773903,15.5799373 67.9302587,20.031348 C76.0967379,25.5956113 83.428009,32.6436782 89.924072,41.1755486 C96.420135,49.707419 103.008999,60.6504702 109.690664,74.0047022 L109.690664,74.0047022 L248.892013,355 L251.119235,355 Z M495,350.548589 L495,346.097179 C484.977503,344.984326 476.625422,343.129572 469.943757,340.532915 C463.262092,337.936259 457.87964,334.041275 453.7964,328.847962 C449.713161,323.65465 446.743532,316.792059 444.887514,308.260188 C443.031496,299.728318 441.917885,289.341693 441.546682,277.100313 L441.546682,277.100313 L434.308211,73.4482759 C433.937008,62.3197492 434.12261,52.6750261 434.865017,44.5141066 C435.607424,36.353187 437.741845,29.4905956 441.268279,23.9263323 C444.794713,18.362069 449.991564,14.003396 456.85883,10.8503135 C463.726097,7.69723093 472.913386,5.56426332 484.420697,4.45141066 L484.420697,4.45141066 L484.420697,0 L374.730034,0 L385.309336,277.100313 C385.68054,280.809822 385.866142,284.14838 385.866142,287.115987 L385.866142,287.115987 L385.866142,295.462382 C385.866142,313.268025 382.246907,325.69488 375.008436,332.742947 C367.769966,339.791014 355.613048,344.242424 338.537683,346.097179 L338.537683,346.097179 L338.537683,350.548589 L495,350.548589 Z M154.791901,350.548589 L154.791901,346.097179 C141.799775,346.097179 130.663667,344.056949 121.383577,339.976489 C112.103487,335.896029 104.12261,329.960815 97.4409449,322.170846 C94.4713161,318.461338 92.1512936,313.638976 90.4808774,307.703762 C88.8104612,301.768548 87.6040495,295.55512 86.8616423,289.06348 C86.1192351,282.571839 85.6552306,276.080199 85.4696288,269.588558 C85.284027,263.096917 85.1912261,257.439916 85.1912261,252.617555 L85.1912261,252.617555 L79.6231721,252.617555 C78.5095613,258.181818 77.0247469,264.302508 75.1687289,270.979624 C73.3127109,277.65674 71.1782902,284.241118 68.7654668,290.732759 C66.3526434,297.224399 63.7542182,303.345089 60.9701912,309.094828 C58.1861642,314.844566 55.1237345,319.57419 51.7829021,323.283699 C45.4724409,330.702717 37.9555681,336.174242 29.2322835,339.698276 C20.5089989,343.222309 10.7649044,345.355277 0,346.097179 L0,346.097179 L0,350.548589 L154.791901,350.548589 Z" id="path-1"></path>
    </defs>
    <g id="Page-1" stroke="none" stroke-width="1" fill="none" fill-rule="evenodd">
        <g id="Our-Range" transform="translate(-479.000000, -1023.000000)">
            <g id="stylish-modern-bathroom-2N58EPR" transform="translate(479.000000, 1023.000000)">
                <g transform="translate(0.000000, 0.455993)">
                    <mask id="mask-2" fill="white">
                        <use xlink:href="#path-1"></use>
                    </mask>
                    <use id="Mask" fill="#FFFFFF" fill-rule="nonzero" xlink:href="#path-1"></use>
                </g>
            </g>
        </g>
    </g>
</svg>